<svg xmlns="http://www.w3.org/2000/svg" xmlns:svg="http://www.w3.org/2000/svg" id="svg6034" width="60" height="60" version="1.1" viewBox="0 0 60 60" xml:space="preserve" style="clip-rule:evenodd;fill-rule:evenodd;stroke-linejoin:round;stroke-miterlimit:1.41420996"><metadata id="metadata6040"/><g id="g6032" transform="matrix(0.19993327,0,0,0.19990235,0.01465042,0.01464815)"><g id="Background"><g id="g6015"><path id="path6011" d="M 300,30.271 C 300,13.564 286.436,0 269.729,0 H 30.271 C 13.564,0 0,13.564 0,30.271 V 269.729 C 0,286.436 13.564,300 30.271,300 H 269.729 C 286.436,300 300,286.436 300,269.729 Z" style="fill:#fff"/><path id="path6013" d="m 269.925,0.001 c 16.09972,-0.31510169 30.49384,14.17259 30.075,30.27 -0.1061,80.84884 0.21081,161.71193 -0.156,242.552 C 298.61375,288.46369 283.6522,301.15677 268.03194,300 187.74879,299.89388 107.45138,300.21085 27.177,299.844 11.536306,298.61375 -1.1567723,283.6522 0,268.03194 0.10612413,187.74879 -0.21084904,107.45138 0.156,27.177 1.3862455,11.536306 16.347799,-1.1567723 31.968056,0 111.28704,6.6687171e-4 190.60602,-0.00133361 269.925,0.001 Z M 30.296,16 C 21.973925,15.732721 14.968163,23.80142 16,31.993056 16.103721,111.93578 15.794138,191.89863 16.152,271.829 17.110107,279.66576 25.171747,285.14519 32.841585,284 112.50147,283.89626 192.18147,284.20589 271.829,283.848 279.6657,282.88989 285.14515,274.82817 284,267.15842 283.89626,187.49853 284.20589,107.81853 283.848,28.171 282.89006,20.334162 274.82812,14.854983 267.15842,16 188.20428,16 109.25014,16 30.296,16 Z" style="fill:#2d67b9"/></g></g><g id="g6030" transform="matrix(0.869546,0,0,0.869546,39.2081,35.3572)"><g id="g6020" transform="matrix(-1.00391,0,0,-1.00502,255.325,224.384)"><path id="path6018" d="m 127.414,-22.07 54.467,144.324 H 72.946 Z" style="fill:#2d67b9"/></g><g id="g6024" transform="matrix(0.910472,0,0,0.913778,11.4071,20.7321)"><circle id="circle6022" cx="127.414" cy="61.73" r="65.683" style="fill:#2d67b9"/></g><g id="g6028" transform="matrix(0.637281,0,0,0.639595,46.2153,37.6575)"><circle id="circle6026" cx="127.414" cy="61.73" r="65.683" style="fill:#fff"/></g></g></g></svg>