<svg xmlns="http://www.w3.org/2000/svg" xmlns:cc="http://web.resource.org/cc/" xmlns:svg="http://www.w3.org/2000/svg" xmlns:xlink="http://www.w3.org/1999/xlink" id="svg1998" width="51.359" height="47.631" version="1.0"><metadata id="metadata2003"/><defs id="defs2001"><linearGradient id="linearGradient10123"><stop style="stop-color:#e4405c;stop-opacity:1" id="stop10125" offset="0"/><stop style="stop-color:#e4405c;stop-opacity:0" id="stop10127" offset="1"/></linearGradient><linearGradient id="linearGradient8331"><stop style="stop-color:#6e8caa;stop-opacity:1" id="stop8333" offset="0"/><stop style="stop-color:#dde3ef;stop-opacity:1" id="stop8335" offset="1"/></linearGradient><linearGradient id="linearGradient6603"><stop style="stop-color:#506eaa;stop-opacity:1" id="stop6605" offset="0"/><stop style="stop-color:#506eaa;stop-opacity:0" id="stop6607" offset="1"/></linearGradient><linearGradient id="linearGradient6587"><stop style="stop-color:#506eaa;stop-opacity:1" id="stop6589" offset="0"/><stop style="stop-color:#506eaa;stop-opacity:0" id="stop6591" offset="1"/></linearGradient><marker id="Arrow2Lstart" orient="auto" refX="0" refY="0" style="overflow:visible"><path id="path11918" d="M 8.7185878,4.0337352 L -2.2072895,0.016013256 L 8.7185884,-4.0017078 C 6.97309,-1.6296469 6.9831476,1.6157441 8.7185878,4.0337352 z" transform="matrix(1.1,0,0,1.1,1.1,0)" style="font-size:12px;fill-rule:evenodd;stroke-width:.625;stroke-linejoin:round"/></marker><marker id="Arrow1Send" orient="auto" refX="0" refY="0" style="overflow:visible"><path id="path11921" d="M 0,0 L 5,-5 L -12.5,0 L 5,5 L 0,0 z" transform="matrix(-0.2,0,0,-0.2,-1.2,0)" style="fill-rule:evenodd;stroke:#000;stroke-width:1pt;marker-start:none"/></marker><marker id="Arrow1Lstart" orient="auto" refX="0" refY="0" style="overflow:visible"><path id="path11936" d="M 0,0 L 5,-5 L -12.5,0 L 5,5 L 0,0 z" transform="matrix(0.8,0,0,0.8,10,0)" style="fill-rule:evenodd;stroke:#000;stroke-width:1pt;marker-start:none"/></marker><linearGradient id="linearGradient6593" x1="3.956" x2="-1.266" y1=".643" y2=".627" gradientTransform="matrix(1.060042,0,0,1.074658,-3.942481e-3,-0.356572)" gradientUnits="userSpaceOnUse" xlink:href="#linearGradient6587"/><linearGradient id="linearGradient6609" x1="2.28" x2="-.413" y1="1.452" y2="1.465" gradientTransform="matrix(1.060042,0,0,1.074658,-3.942482e-3,-0.356572)" gradientUnits="userSpaceOnUse" xlink:href="#linearGradient6603"/><linearGradient id="linearGradient10129" x1="1.399" x2=".5" y1="1.471" y2=".564" gradientTransform="matrix(1.117962,0,0,1.035008,-4.0973e-2,-6.788682e-3)" gradientUnits="userSpaceOnUse" xlink:href="#linearGradient10123"/><linearGradient id="linearGradient6875" x1="2.118" x2="-.495" y1=".306" y2=".306" gradientTransform="matrix(24.897735,0,0,25.405463,-9.0988193,-4.8632254)" gradientUnits="userSpaceOnUse" xlink:href="#linearGradient8331"/></defs><path id="path11907" d="M 1.8402723,44.565612 L 1.8402723,47.615693 L 44.293781,47.615693 L 44.293781,44.565612 L 1.8402723,44.565612" style="fill:#000;fill-opacity:.39215686;stroke:none;stroke-width:.001"/><path id="path11020" d="M 44.370594,6.1851672 L 51.194316,1.0980117 L 51.358819,41.344844 L 44.266438,47.63069 L 44.370594,6.1851672" style="fill:#000;fill-opacity:.39215686;stroke:none;stroke-width:.001"/><path id="path2037" d="M 0.062500355,5.1558922 L 0.062500355,46.326915 L 44.407694,46.326915 L 44.407694,5.1558922 L 0.062500355,5.1558922" style="fill:#6e8caa;fill-opacity:1;stroke:none;stroke-width:.001"/><path id="path2041" d="M -0.38461268,5.6292351 L 5.2920708,0.21786924 L 50.13289,0.21786924 L 44.406412,5.6292351 L -0.38461268,5.6292351" style="fill:url(#linearGradient6875);fill-opacity:1;stroke:none;stroke-width:.001"/><path id="path2045" d="M 44.273363,5.1335036 L 49.931392,0.17309204 L 49.931392,41.393412 L 44.273363,46.353824 L 44.273363,5.1335036" style="fill:#6e8296;fill-opacity:1;stroke:none;stroke-width:.001"/><path id="path2308" d="M 6.9008645,9.9249678 L 6.9008645,15.823002 L 8.6688089,14.104511 L 13.26115,18.262836 L 15.352498,16.183674 L 11.148242,11.664677 L 12.894625,9.9249678 L 6.9008645,9.9249678" style="fill:#000;stroke:none;stroke-width:.001"/><path id="path2310" d="M 38.572933,41.21849 L 38.572933,35.320457 L 36.80499,37.060165 L 32.255767,32.541168 L 29.776335,34.959786 L 34.347116,39.478782 L 32.600733,41.21849 L 38.572933,41.21849" style="fill:#000;stroke:none;stroke-width:.001"/><path id="path2312" d="M 20.63477,25.561122 L 23.092643,23.142504 L 17.465406,17.923381 L 14.985974,20.341999 L 20.63477,25.561122" style="fill:#000;stroke:none;stroke-width:.001"/><path id="path2314" d="M 27.663426,32.880623 L 30.121299,30.440789 L 24.860587,25.221667 L 22.402714,27.6615 L 27.663426,32.880623" style="fill:#000;stroke:none;stroke-width:.001"/><path id="path2316" d="M 6.57746,10.603879 L 6.57746,16.183674 L 8.3022831,14.443966 L 12.894625,18.941746 L 15.352498,16.544345 L 10.781716,12.364803 L 12.54966,10.603879 L 6.57746,10.603879" style="fill:#fff;stroke:none;stroke-width:.001"/><path id="path2318" d="M 38.572933,41.579161 L 38.572933,36.020583 L 36.80499,37.739075 L 32.255767,33.220078 L 29.776335,35.659912 L 34.347116,39.839454 L 32.600733,41.579161 L 38.572933,41.579161" style="fill:#fff;stroke:none;stroke-width:.001"/><path id="path2320" d="M 20.289805,26.261248 L 22.747678,23.821414 L 17.465406,18.623508 L 14.985974,21.063342 L 20.289805,26.261248" style="fill:#fff;stroke:none;stroke-width:.001"/><path id="path2322" d="M 27.663426,33.559533 L 30.121299,31.1197 L 24.860587,25.921793 L 22.402714,28.000956 L 27.663426,33.559533" style="fill:#fff;stroke:none;stroke-width:.001"/></svg>