<svg xmlns="http://www.w3.org/2000/svg" xmlns:cc="http://web.resource.org/cc/" xmlns:svg="http://www.w3.org/2000/svg" xmlns:xlink="http://www.w3.org/1999/xlink" id="svg1998" width="72.14" height="32.198" version="1.0"><metadata id="metadata2003"/><defs id="defs2001"><linearGradient id="linearGradient6603"><stop style="stop-color:#506eaa;stop-opacity:1" id="stop6605" offset="0"/><stop style="stop-color:#506eaa;stop-opacity:0" id="stop6607" offset="1"/></linearGradient><linearGradient id="linearGradient6587"><stop style="stop-color:#6e8caa;stop-opacity:1" id="stop6589" offset="0"/><stop style="stop-color:#edeff3;stop-opacity:1" id="stop6591" offset="1"/></linearGradient><marker id="Arrow2Lstart" orient="auto" refX="0" refY="0" style="overflow:visible"><path id="path11918" d="M 8.7185878,4.0337352 L -2.2072895,0.016013256 L 8.7185884,-4.0017078 C 6.97309,-1.6296469 6.9831476,1.6157441 8.7185878,4.0337352 z" transform="matrix(1.1,0,0,1.1,1.1,0)" style="font-size:12px;fill-rule:evenodd;stroke-width:.625;stroke-linejoin:round"/></marker><marker id="Arrow1Send" orient="auto" refX="0" refY="0" style="overflow:visible"><path id="path11921" d="M 0,0 L 5,-5 L -12.5,0 L 5,5 L 0,0 z" transform="matrix(-0.2,0,0,-0.2,-1.2,0)" style="fill-rule:evenodd;stroke:#000;stroke-width:1pt;marker-start:none"/></marker><marker id="Arrow1Lstart" orient="auto" refX="0" refY="0" style="overflow:visible"><path id="path11936" d="M 0,0 L 5,-5 L -12.5,0 L 5,5 L 0,0 z" transform="matrix(0.8,0,0,0.8,10,0)" style="fill-rule:evenodd;stroke:#000;stroke-width:1pt;marker-start:none"/></marker><linearGradient id="linearGradient6593" x1="3.956" x2="-1.266" y1=".643" y2=".627" gradientTransform="matrix(1.119123,0,0,1.09281,-7.833718e-3,-0.353953)" gradientUnits="userSpaceOnUse" xlink:href="#linearGradient6587"/><linearGradient id="linearGradient6609" x1="2.28" x2="-.413" y1="1.452" y2="1.465" gradientTransform="matrix(1.119124,0,0,1.09281,-7.8336875e-3,-0.353953)" gradientUnits="userSpaceOnUse" xlink:href="#linearGradient6603"/><linearGradient id="linearGradient11856" x1="3.956" x2="-1.266" y1=".643" y2=".627" gradientTransform="matrix(15.191599,0,0,15.33747,-2.531938,3.061917e-2)" gradientUnits="userSpaceOnUse" xlink:href="#linearGradient6587"/></defs><path style="fill:#000;fill-opacity:.39215686;stroke:none;stroke-width:.001" id="path13703" d="M 2.2772683,16.455363 L 2.2772683,32.151128 L 54.874392,32.151128 L 54.874392,16.455363 L 2.2772683,16.455363"/><path style="fill:#000;fill-opacity:.39215686;stroke:none;stroke-width:.001" id="path14592" d="M 54.835664,18.785244 L 71.22016,2.975988 L 71.22016,16.389017 L 54.835664,32.198271 L 54.835664,18.785244"/><path style="fill:#6e8296;fill-opacity:1;stroke:none;stroke-width:.001" id="path2009" d="M 54.766167,16.462321 L 71.967339,2.4980018e-15 L 71.967339,13.967109 L 54.766167,30.42943 L 54.766167,16.462321"/><path style="fill:#6e8caa;fill-opacity:1;stroke:none;stroke-width:.00110589" id="path2007" d="M 0.26240697,16.276497 L 0.26240697,30.176133 L 55.117276,30.176133 L 55.117276,16.276497 L 0.26240697,16.276497"/><path style="fill:url(#linearGradient11856);fill-opacity:1;stroke:none;stroke-width:.01505287;stroke-opacity:1" id="path2013" d="M 55.175888,16.63586 L 72.266438,0.04072379 L 17.044975,0.04072379 L 0,16.63586 L 55.175888,16.63586"/><path style="fill:#000;stroke:none;stroke-width:.001" id="path2019" d="M 17.204076,6.3582344 L 13.617458,8.6449991 L 38.750949,8.6449991 L 34.267676,11.507819 L 55.787376,7.5278009 L 44.130872,4.6300688 L 42.391907,6.3582344 L 17.204076,6.3582344"/><path style="fill:#fff;stroke:none;stroke-width:.001" id="path2027" d="M 18.127901,6.9342897 L 14.514113,9.2035982 L 39.647603,9.2035982 L 35.164332,12.048963 L 56.711205,8.0514876 L 45.054702,5.2061239 L 43.234218,6.9342897 L 18.127901,6.9342897"/></svg>