<svg xmlns="http://www.w3.org/2000/svg" xmlns:svg="http://www.w3.org/2000/svg" xmlns:xlink="http://www.w3.org/1999/xlink" id="svg1998" width="51.359" height="47.631" version="1.0"><metadata id="metadata2003"/><defs id="defs2001"><linearGradient id="linearGradient8331"><stop style="stop-color:#6e8caa;stop-opacity:1" id="stop8333" offset="0"/><stop style="stop-color:#cfd8e9;stop-opacity:1" id="stop8335" offset="1"/></linearGradient><linearGradient id="linearGradient6603"><stop style="stop-color:#506eaa;stop-opacity:1" id="stop6605" offset="0"/><stop style="stop-color:#506eaa;stop-opacity:0" id="stop6607" offset="1"/></linearGradient><linearGradient id="linearGradient6587"><stop style="stop-color:#506eaa;stop-opacity:1" id="stop6589" offset="0"/><stop style="stop-color:#506eaa;stop-opacity:0" id="stop6591" offset="1"/></linearGradient><marker id="Arrow2Lstart" orient="auto" refX="0" refY="0" style="overflow:visible"><path id="path11918" d="M 8.7185878,4.0337352 L -2.2072895,0.016013256 L 8.7185884,-4.0017078 C 6.97309,-1.6296469 6.9831476,1.6157441 8.7185878,4.0337352 z" transform="matrix(1.1,0,0,1.1,1.1,0)" style="font-size:12px;fill-rule:evenodd;stroke-width:.625;stroke-linejoin:round"/></marker><marker id="Arrow1Send" orient="auto" refX="0" refY="0" style="overflow:visible"><path id="path11921" d="M 0,0 L 5,-5 L -12.5,0 L 5,5 L 0,0 z" transform="matrix(-0.2,0,0,-0.2,-1.2,0)" style="fill-rule:evenodd;stroke:#000;stroke-width:1pt;marker-start:none"/></marker><marker id="Arrow1Lstart" orient="auto" refX="0" refY="0" style="overflow:visible"><path id="path11936" d="M 0,0 L 5,-5 L -12.5,0 L 5,5 L 0,0 z" transform="matrix(0.8,0,0,0.8,10,0)" style="fill-rule:evenodd;stroke:#000;stroke-width:1pt;marker-start:none"/></marker><linearGradient id="linearGradient6593" x1="3.956" x2="-1.266" y1=".643" y2=".627" gradientTransform="matrix(1.060042,0,0,1.074658,-3.942481e-3,-0.356572)" gradientUnits="userSpaceOnUse" xlink:href="#linearGradient6587"/><linearGradient id="linearGradient6609" x1="2.28" x2="-.413" y1="1.452" y2="1.465" gradientTransform="matrix(1.060042,0,0,1.074658,-3.942482e-3,-0.356572)" gradientUnits="userSpaceOnUse" xlink:href="#linearGradient6603"/><linearGradient id="linearGradient8337" x1="2.118" x2="-.495" y1=".306" y2=".306" gradientTransform="matrix(1.117962,0,0,1.035008,-4.0973e-2,-6.788682e-3)" gradientUnits="userSpaceOnUse" xlink:href="#linearGradient8331"/><linearGradient id="linearGradient9199" x1="2.118" x2="-.495" y1=".306" y2=".306" gradientTransform="matrix(24.666332,1.3331909e-2,-1.2883406e-2,23.708747,-8.6563136,-4.6316275)" gradientUnits="userSpaceOnUse" xlink:href="#linearGradient8331"/><path id="p" d="M 2.8117,-1.046 A 3 3 0 0 1 .5,2.958 V 4.5119 A 10.5 10.5 0 0 1 2,25.3078 V 25.8661 A 15 15 0 0 0 14.7975,8.5433 15 15 0 0 0 23.4007,-11.201 L 22.9172,-10.9218 A 10.5 10.5 0 0 1 4.1574,-1.8229 z M 6.2265,7.825 A 10 10 0 0 1 -6.2265,7.825 9.5 9.5 0 0 0 -8.4021,10.5667 13.5 13.5 0 0 0 8.4021,10.5667 10 10 0 0 0 6.2265,7.825 z" transform="scale(10,-10) translate(26,-26)"/></defs><path id="path11907" d="M 1.8402723,44.565612 L 1.8402723,47.615693 L 44.293781,47.615693 L 44.293781,44.565612 L 1.8402723,44.565612" style="fill:#000;fill-opacity:.39215686;stroke:none;stroke-width:.001"/><path id="path11020" d="M 44.370594,6.1851672 L 51.194316,1.0980117 L 51.358819,41.344844 L 44.266438,47.63069 L 44.370594,6.1851672" style="fill:#000;fill-opacity:.39215686;stroke:none;stroke-width:.001"/><path id="path2037" d="m -0.02588799,5.0439492 0,41.2829658 44.25563999,0 0,-41.2829658 -44.25563999,0" style="fill:#6e8caa;fill-opacity:1;stroke:none"/><path id="path2041" d="M -0.028418806,5.1647552 L 5.5982489,0.11782966 L 50.022311,0.14184042 L 44.346312,5.1887393 L -0.028418806,5.1647552" style="fill:url(#linearGradient9199);fill-opacity:1;stroke:none;stroke-width:.001"/><path id="path2045" d="m 44.228586,5.2655031 5.747583,-4.96041157 0,41.22032047 -5.747583,4.960412 0,-41.2203209" style="fill:#6e8296;fill-opacity:1;stroke:none"/><g id="biohazard-5" transform="matrix(0.11988204,0,0,0.11988204,-17.597288,73.349552)"><use style="fill:#000" id="use3175" width="1" height="1" x="0" y="0" transform="matrix(0.59107234,0,0,0.59107234,184.79656,-531.9575)" xlink:href="#p"/><use id="use3341-4" width="1" height="1" x="0" y="0" transform="matrix(0.59107234,0,0,0.59107234,178.54041,-531.9575)" xlink:href="#p" style="fill:#fff"/><use style="fill:#000" id="use3177" width="1" height="1" x="0" y="0" transform="matrix(-0.29553617,0.51188366,-0.51188366,-0.29553617,548.40456,-434.52903)" xlink:href="#p"/><use id="use3343-1" width="1" height="1" x="0" y="0" transform="matrix(-0.29553617,0.51188366,-0.51188366,-0.29553617,542.14838,-434.52903)" xlink:href="#p" style="fill:#fff"/><use style="fill:#000" id="use3179" width="1" height="1" x="0" y="0" transform="matrix(-0.29400183,-0.50773227,0.5092261,-0.29313937,279.18389,-169.44999)" xlink:href="#p"/><use id="use3345-1" width="1" height="1" x="0" y="0" transform="matrix(-0.28939879,-0.51188366,0.5012534,-0.29553617,274.12647,-168.34953)" xlink:href="#p" style="fill:#fff"/></g></svg>