<svg xmlns="http://www.w3.org/2000/svg" xmlns:cc="http://web.resource.org/cc/" xmlns:svg="http://www.w3.org/2000/svg" xmlns:xlink="http://www.w3.org/1999/xlink" id="svg1998" width="51.359" height="47.631" version="1.0"><title id="title4697">PBX</title><metadata id="metadata2003"/><defs id="defs2001"><linearGradient id="linearGradient10123"><stop style="stop-color:#e4405c;stop-opacity:1" id="stop10125" offset="0"/><stop style="stop-color:#e4405c;stop-opacity:0" id="stop10127" offset="1"/></linearGradient><linearGradient id="linearGradient8331"><stop style="stop-color:#6e8caa;stop-opacity:1" id="stop8333" offset="0"/><stop style="stop-color:#dde3ef;stop-opacity:1" id="stop8335" offset="1"/></linearGradient><linearGradient id="linearGradient6603"><stop style="stop-color:#506eaa;stop-opacity:1" id="stop6605" offset="0"/><stop style="stop-color:#506eaa;stop-opacity:0" id="stop6607" offset="1"/></linearGradient><linearGradient id="linearGradient6587"><stop style="stop-color:#506eaa;stop-opacity:1" id="stop6589" offset="0"/><stop style="stop-color:#506eaa;stop-opacity:0" id="stop6591" offset="1"/></linearGradient><marker id="Arrow2Lstart" orient="auto" refX="0" refY="0" style="overflow:visible"><path id="path11918" d="M 8.7185878,4.0337352 L -2.2072895,0.016013256 L 8.7185884,-4.0017078 C 6.97309,-1.6296469 6.9831476,1.6157441 8.7185878,4.0337352 z" transform="matrix(1.1,0,0,1.1,1.1,0)" style="font-size:12px;fill-rule:evenodd;stroke-width:.625;stroke-linejoin:round"/></marker><marker id="Arrow1Send" orient="auto" refX="0" refY="0" style="overflow:visible"><path id="path11921" d="M 0,0 L 5,-5 L -12.5,0 L 5,5 L 0,0 z" transform="matrix(-0.2,0,0,-0.2,-1.2,0)" style="fill-rule:evenodd;stroke:#000;stroke-width:1pt;marker-start:none"/></marker><marker id="Arrow1Lstart" orient="auto" refX="0" refY="0" style="overflow:visible"><path id="path11936" d="M 0,0 L 5,-5 L -12.5,0 L 5,5 L 0,0 z" transform="matrix(0.8,0,0,0.8,10,0)" style="fill-rule:evenodd;stroke:#000;stroke-width:1pt;marker-start:none"/></marker><linearGradient id="linearGradient6593" x1="3.956" x2="-1.266" y1=".643" y2=".627" gradientTransform="matrix(1.060042,0,0,1.074658,-3.942481e-3,-0.356572)" gradientUnits="userSpaceOnUse" xlink:href="#linearGradient6587"/><linearGradient id="linearGradient6609" x1="2.28" x2="-.413" y1="1.452" y2="1.465" gradientTransform="matrix(1.060042,0,0,1.074658,-3.942482e-3,-0.356572)" gradientUnits="userSpaceOnUse" xlink:href="#linearGradient6603"/><linearGradient id="linearGradient10129" x1="1.399" x2=".5" y1="1.471" y2=".564" gradientTransform="matrix(1.117962,0,0,1.035008,-4.0973e-2,-6.788682e-3)" gradientUnits="userSpaceOnUse" xlink:href="#linearGradient10123"/><linearGradient id="linearGradient6875" x1="2.118" x2="-.495" y1=".306" y2=".306" gradientTransform="matrix(24.897735,0,0,25.405463,-9.0988193,-4.8632254)" gradientUnits="userSpaceOnUse" xlink:href="#linearGradient8331"/></defs><path id="path11907" d="M 1.8402723,44.565612 L 1.8402723,47.615693 L 44.293781,47.615693 L 44.293781,44.565612 L 1.8402723,44.565612" style="fill:#000;fill-opacity:.39215686;stroke:none;stroke-width:.001"/><path id="path11020" d="M 44.370594,6.1851672 L 51.194316,1.0980117 L 51.358819,41.344844 L 44.266438,47.63069 L 44.370594,6.1851672" style="fill:#000;fill-opacity:.39215686;stroke:none;stroke-width:.001"/><path id="path2037" d="M 0.062500355,5.1558922 L 0.062500355,46.326915 L 44.407694,46.326915 L 44.407694,5.1558922 L 0.062500355,5.1558922" style="fill:#6e8caa;fill-opacity:1;stroke:none;stroke-width:.001"/><path id="path2041" d="M -0.38461268,5.6292351 L 5.2920708,0.21786924 L 50.13289,0.21786924 L 44.406412,5.6292351 L -0.38461268,5.6292351" style="fill:url(#linearGradient6875);fill-opacity:1;stroke:none;stroke-width:.001"/><path id="path2045" d="M 44.273363,5.1335036 L 49.931392,0.17309204 L 49.931392,41.393412 L 44.273363,46.353824 L 44.273363,5.1335036" style="fill:#6e8296;fill-opacity:1;stroke:none;stroke-width:.001"/><path style="fill:#131516" id="path4615" d="M 22.054092,7.8443674 L 16.964157,13.466058 L 27.144079,13.466058 L 22.054092,7.8443674 z"/><path style="fill:#131516" id="path4617" d="M 22.054092,43.291105 L 27.144079,37.662687 L 16.964157,37.662687 L 22.054092,43.291105 z"/><path style="fill:#131516" id="path4619" d="M 2.5803714,26.587724 L 7.6703061,32.189174 L 7.6703061,20.966091 L 2.5803714,26.587724 z"/><path style="fill:#131516" id="path4621" d="M 41.509547,26.587724 L 36.419612,20.966091 L 36.419612,32.189174 L 41.509547,26.587724 z"/><path style="fill:#131516" id="path4623" d="M 25.995303,20.892031 L 18.436749,20.892031 L 18.436749,24.588171 L 14.220621,29.233573 L 14.220621,33.340433 L 14.64834,33.825156 L 29.747077,33.825156 L 30.217588,33.300011 L 30.217588,29.233573 L 25.995303,24.588171 L 25.995303,20.892031 z"/><path style="fill:#131516" id="path4625" d="M 24.204949,16.623597 L 22.934004,16.536083 L 20.483755,16.536083 L 18.613974,16.738022 L 16.621972,17.222802 L 14.825564,17.916248 L 13.389607,18.798179 L 12.210302,19.983133 L 11.226539,22.016323 L 11.226539,24.534294 L 12.118663,25.517251 L 15.033318,25.517251 L 15.894861,24.554476 L 15.894861,22.272197 L 15.406032,22.272197 L 15.760429,20.743912 L 17.984607,19.659985 L 19.567208,19.377201 L 20.728143,19.303142 L 22.237422,19.289687 L 23.422833,19.336779 L 25.042068,19.538775 L 26.65525,20.043738 L 27.962829,20.488038 L 28.854953,22.251957 L 28.421129,22.251957 L 28.421129,24.561203 L 29.276566,25.510524 L 32.142322,25.517251 L 33.003917,24.554476 L 33.003917,22.016323 L 32.252331,20.461128 L 30.816374,18.905934 L 29.319359,17.943158 L 27.742864,17.222802 L 25.567584,16.758261 L 24.204949,16.623597 L 24.204949,16.623597 z"/><path style="fill:#fff;fill-opacity:1" id="path4627" d="M 22.359642,8.1810282 L 17.275813,13.802661 L 27.449577,13.802661 L 22.359642,8.1810282 L 22.359642,8.1810282 z"/><path style="fill:#fff" id="path4629" d="M 22.359642,43.627708 L 27.449577,38.012803 L 17.275813,38.012803 L 22.359642,43.627708 z"/><path style="fill:#fff" id="path4631" d="M 2.8919756,26.924327 L 7.988016,32.53929 L 7.988016,21.302694 L 2.8919756,26.924327 L 2.8919756,26.924327 z"/><path style="fill:#fff" id="path4633" d="M 41.815045,26.924327 L 36.725111,21.302694 L 36.725111,32.53929 L 41.815045,26.924327 L 41.815045,26.924327 z"/><path style="fill:#fff" id="path4635" d="M 26.306959,21.228635 L 18.7423,21.228635 L 18.7423,24.924774 L 14.538331,29.570234 L 14.538331,33.677037 L 14.953838,34.161817 L 30.052576,34.161817 L 30.510875,33.636672 L 30.510875,29.570234 L 26.306959,24.924774 L 26.306959,21.228635 L 26.306959,21.228635 z"/><path style="fill:#fff" id="path4637" d="M 24.516605,16.966928 L 23.239503,16.886141 L 20.789253,16.886141 L 18.919472,17.074682 L 16.927522,17.559405 L 15.137168,18.259579 L 13.695105,19.148295 L 12.5158,20.319737 L 11.538143,22.352984 L 11.538143,24.870897 L 12.424161,25.860582 L 15.338816,25.860582 L 16.206465,24.897864 L 16.206465,22.615528 L 15.71153,22.615528 L 16.065927,21.080515 L 18.302317,20.003316 L 19.872706,19.713805 L 21.033694,19.639745 L 22.542921,19.62629 L 23.728331,19.680167 L 25.347619,19.875379 L 26.97296,20.380341 L 28.268379,20.831427 L 29.160504,22.588618 L 28.726627,22.588618 L 28.726627,24.911319 L 29.582116,25.853855 L 32.447873,25.860582 L 33.309416,24.897864 L 33.309416,22.352984 L 32.557829,20.797732 L 31.121924,19.242537 L 29.624857,18.279819 L 28.048414,17.559405 L 25.873082,17.094865 L 24.516605,16.966928 L 24.516605,16.966928 z"/></svg>